<svg xmlns="http://www.w3.org/2000/svg" viewBox="0 0 608.06 90.15"><defs><style>.cls-1{fill:#fab814;}.cls-2{fill:#fff;}.cls-3{fill:#d01317;}.cls-4{fill:#059891;}</style></defs><title>memory-half-white</title><g id="Calque_2" data-name="Calque 2"><g id="Calque_1-2" data-name="Calque 1"><rect class="cls-1" x="134.46" y="52.71" width="19.49" height="49.63" transform="translate(221.72 -66.68) rotate(90)"/><path class="cls-2" d="M76,87.15V25.76L45.48,87.15H41.37L9,25.35V87.15H0v-85H6.55L42.79,74.58,78.88,2.15H85v85Z"/><path class="cls-2" d="M298,87.15V25.76l-30.44,61.4h-3.19L232,25.35V87.15h-9v-85h5.62l36.24,72.43L301,2.15h6v85Z"/><path class="cls-2" d="M387.37,90.15c-26.36,0-46-20.22-46-45.08S361,0,387.37,0s46,20.22,46,45.08S413.73,90.15,387.37,90.15Zm0-82.37c-21.12,0-36.84,16.77-36.84,37.29s15.72,37.29,36.84,37.29,36.84-16.77,36.84-37.29S408.49,7.79,387.37,7.79Z"/><path class="cls-2" d="M511,88.15l-24.26-36H477v36h-9v-86h20C506.3,2.15,517,11.84,517,27c0,13.62-9.69,21.49-20.13,24.07l25.42,37.11Zm-24.11-78H477v34h9.31c9.91,0,20.84-4.29,20.84-17.59C507.16,15.62,500.36,10.15,486.9,10.15Z"/><path class="cls-2" d="M580,51.39V87.15h-9V51.39L542.78,2.15H553l22.42,41.6,22.42-41.6h10.22Z"/><rect class="cls-3" x="128" y="-6.85" width="19" height="37" transform="translate(149.15 -125.85) rotate(90)"/><rect class="cls-4" x="144" y="10.09" width="19" height="69" transform="translate(198.09 -108.91) rotate(90)"/></g></g></svg>